<svg width="148" height="148" viewBox="0 0 148 148" fill="none" xmlns="http://www.w3.org/2000/svg">
<circle cx="74" cy="74" r="74" fill="#2563EB"/>
<path d="M40.192 120.792C36.0107 120.792 32.7253 119.512 30.336 116.952C28.032 114.392 26.88 110.595 26.88 105.56V75.864C26.88 75.1813 26.624 74.712 26.112 74.456C25.6 74.1147 24.4907 73.944 22.784 73.944H22.016C21.5893 73.944 21.2053 73.688 20.864 73.176C20.608 72.5787 20.48 71.9813 20.48 71.384C20.48 71.2133 20.608 70.9573 20.864 70.616C21.12 70.2747 21.2907 70.0613 21.376 69.976C23.0827 68.7813 24.6187 67.5867 25.984 66.392C27.4347 65.1973 28.7147 64.0453 29.824 62.936C31.0187 61.7413 32 60.6747 32.768 59.736C33.1947 59.3093 33.536 58.968 33.792 58.712C34.1333 58.3707 34.5173 58.2 34.944 58.2C35.3707 58.2 35.7547 58.2853 36.096 58.456C36.5227 58.6267 36.6933 59.0107 36.608 59.608L35.968 65.368C35.8827 66.3067 36.096 66.9467 36.608 67.288C37.12 67.6293 37.9307 67.8 39.04 67.8H53.632C53.9733 67.8 54.272 68.0987 54.528 68.696C54.784 69.208 54.912 69.848 54.912 70.616C54.912 71.384 54.784 72.152 54.528 72.92C54.272 73.6027 53.9733 73.944 53.632 73.944H40.96C38.8267 73.944 37.4187 74.1147 36.736 74.456C36.1387 74.7973 35.84 75.8213 35.84 77.528V102.744C35.84 106.157 36.5653 108.845 38.016 110.808C39.4667 112.771 41.5573 113.752 44.288 113.752C46.7627 113.752 48.6827 113.581 50.048 113.24C51.4133 112.813 52.6507 112.216 53.76 111.448C53.9307 111.277 54.1013 111.192 54.272 111.192C54.6133 111.192 54.8267 111.405 54.912 111.832C55.0827 112.173 55.168 112.557 55.168 112.984C55.168 113.411 54.4427 114.264 52.992 115.544C51.6267 116.824 49.792 118.019 47.488 119.128C45.2693 120.237 42.8373 120.792 40.192 120.792ZM62.394 119.64C61.2847 119.64 60.3887 119.512 59.706 119.256C59.0233 119.085 58.682 118.744 58.682 118.232C58.682 117.208 60.09 116.44 62.906 115.928C66.1487 115.331 68.6233 114.349 70.33 112.984C72.0367 111.619 72.89 109.4 72.89 106.328V48.728C72.89 45.656 72.25 43.3947 70.97 41.944C69.69 40.4933 67.4713 39.64 64.314 39.384C62.8633 39.2133 61.7967 38.9147 61.114 38.488C60.4313 37.976 60.09 37.4213 60.09 36.824C60.09 36.312 60.4313 35.9707 61.114 35.8C61.7967 35.544 62.6927 35.416 63.802 35.416C66.106 35.416 67.898 35.416 69.178 35.416C70.458 35.416 71.6527 35.4587 72.762 35.544C73.9567 35.544 75.4073 35.544 77.114 35.544C78.7353 35.544 80.1433 35.5013 81.338 35.416C82.5327 35.2453 83.8553 35.1173 85.306 35.032C86.842 34.9467 88.8473 34.904 91.322 34.904C101.306 34.904 108.73 36.3547 113.594 39.256C118.543 42.072 121.018 46.9787 121.018 53.976C121.018 56.8773 120.506 59.4373 119.482 61.656C118.543 63.7893 117.605 65.3253 116.666 66.264C115.301 67.6293 114.063 68.696 112.954 69.464C111.845 70.1467 110.223 70.9147 108.09 71.768C107.749 71.8533 107.578 72.0667 107.578 72.408C107.578 72.664 107.749 72.8773 108.09 73.048C110.053 73.6453 112.058 74.4133 114.106 75.352C116.239 76.2907 118.202 77.528 119.994 79.064C121.871 80.5147 123.365 82.4773 124.474 84.952C125.669 87.3413 126.266 90.4133 126.266 94.168C126.266 98.8613 125.498 102.573 123.962 105.304C122.511 108.035 120.762 110.125 118.714 111.576C116.666 113.027 114.746 114.221 112.954 115.16C110.309 116.525 107.237 117.592 103.738 118.36C100.239 119.128 96.058 119.512 91.194 119.512C90.0847 119.512 88.4207 119.427 86.202 119.256C83.9833 119.085 81.594 119 79.034 119C76.8153 119 74.938 119.043 73.402 119.128C71.866 119.213 70.2447 119.299 68.538 119.384C66.9167 119.555 64.8687 119.64 62.394 119.64ZM92.986 114.264C96.7407 114.264 100.239 113.411 103.482 111.704C106.725 109.997 109.327 107.693 111.29 104.792C113.253 101.805 114.234 98.4773 114.234 94.808C114.234 91.48 113.679 88.7493 112.57 86.616C111.461 84.3973 110.181 82.6053 108.73 81.24C107.279 79.8747 105.957 78.8933 104.762 78.296C103.653 77.6133 101.903 76.9307 99.514 76.248C97.1247 75.48 94.01 75.096 90.17 75.096C87.4393 75.096 85.5193 75.6507 84.41 76.76C83.386 77.8693 82.874 78.8507 82.874 79.704V105.176C82.874 108.76 83.7273 111.192 85.434 112.472C87.226 113.667 89.7433 114.264 92.986 114.264ZM88.762 71.512C91.066 71.512 93.5407 71.256 96.186 70.744C98.9167 70.232 101.605 69.2507 104.25 67.8C105.189 67.288 106.383 66.0507 107.834 64.088C109.285 62.1253 110.01 59.3093 110.01 55.64C110.01 53.1653 109.541 50.648 108.602 48.088C107.663 45.4427 105.871 43.224 103.226 41.432C100.581 39.64 96.6127 38.744 91.322 38.744C87.8233 38.744 85.5193 39.2133 84.41 40.152C83.386 41.0907 82.874 42.5413 82.874 44.504V66.776C82.874 68.9947 83.5993 70.36 85.05 70.872C86.5007 71.2987 87.738 71.512 88.762 71.512Z" fill="white"/>
</svg>
